<?xml version="1.0" standalone="no"?>
<!DOCTYPE svg PUBLIC "-//W3C//DTD SVG 20010904//EN"
 "http://www.w3.org/TR/2001/REC-SVG-20010904/DTD/svg10.dtd">
<svg version="1.0" xmlns="http://www.w3.org/2000/svg"
 width="300.000000pt" height="300.000000pt" viewBox="0 0 300.000000 300.000000"
 preserveAspectRatio="xMidYMid meet">
<metadata>
Created by potrace 1.14, written by Peter Selinger 2001-2017
</metadata>
<g transform="translate(0.000000,300.000000) scale(0.100000,-0.100000)"
fill="#000000" stroke="none">
<path d="M1470 2741 c0 -4 -10 -8 -22 -8 -27 1 -118 -40 -118 -52 0 -5 -13
-12 -30 -16 -16 -4 -30 -11 -30 -16 0 -5 -6 -9 -14 -9 -7 0 -19 -7 -26 -15 -7
-8 -16 -12 -21 -9 -5 3 -9 1 -9 -4 0 -8 -34 -23 -48 -21 -2 0 -11 -8 -20 -19
-9 -10 -28 -23 -42 -27 -14 -4 -27 -10 -30 -14 -7 -8 -40 -29 -70 -43 -14 -6
-35 -21 -48 -32 -13 -12 -25 -20 -28 -19 -8 3 -64 -22 -64 -29 0 -4 -24 -19
-52 -33 -60 -29 -91 -47 -98 -57 -3 -3 -18 -10 -33 -13 -15 -4 -27 -11 -27
-16 0 -5 -24 -20 -52 -34 -61 -29 -85 -43 -107 -66 -23 -23 -63 -79 -65 -92
-1 -7 -4 -17 -8 -22 -10 -16 -7 -1145 3 -1145 5 0 8 -3 7 -7 -4 -14 13 -53 23
-53 5 0 9 -6 9 -13 0 -16 37 -51 63 -60 9 -4 17 -11 17 -17 0 -5 9 -10 20 -10
11 0 20 -4 20 -10 0 -5 7 -10 15 -10 7 0 18 -7 23 -16 5 -9 11 -16 13 -15 15
2 49 -13 49 -22 0 -6 3 -8 6 -4 4 3 21 -5 39 -18 17 -14 39 -25 47 -25 9 0 18
-7 22 -15 3 -8 12 -15 21 -15 8 0 15 -5 15 -11 0 -6 7 -9 15 -5 8 3 15 1 15
-4 0 -6 5 -10 11 -10 6 0 25 -11 41 -26 17 -14 37 -23 44 -20 8 3 14 1 14 -4
0 -6 6 -10 14 -10 8 0 16 -7 20 -15 3 -8 12 -15 21 -15 8 0 15 -5 15 -11 0 -6
7 -9 15 -5 8 3 15 1 15 -4 0 -6 7 -10 15 -10 8 0 15 -4 15 -8 0 -5 20 -19 45
-31 25 -12 45 -27 45 -32 0 -5 3 -9 8 -8 15 2 52 -14 52 -23 0 -5 4 -7 8 -4 5
3 18 -4 30 -14 12 -11 26 -20 32 -20 5 0 10 -4 10 -10 0 -5 7 -7 15 -4 8 4 15
2 15 -4 0 -5 12 -13 27 -17 15 -3 31 -12 35 -18 8 -13 130 -23 155 -12 10 5
23 9 28 9 20 2 125 57 125 65 0 5 12 12 26 15 24 6 35 13 69 44 7 6 21 12 29
12 9 0 16 5 16 11 0 5 4 8 9 5 5 -3 14 1 21 9 7 8 19 15 26 15 8 0 14 4 14 9
0 5 14 12 30 16 17 4 30 10 30 14 0 3 20 17 45 31 25 14 45 28 45 32 0 5 9 8
19 8 11 0 26 6 33 12 19 18 45 33 106 63 28 14 52 30 52 34 0 5 14 12 30 16
17 4 30 10 30 15 0 4 8 11 18 14 76 27 199 125 228 181 24 46 25 90 26 608 0
503 -4 597 -23 597 -5 0 -9 6 -9 13 0 18 -100 118 -111 111 -5 -3 -9 0 -9 5 0
6 -7 11 -15 11 -8 0 -15 4 -15 10 0 5 -6 7 -14 4 -7 -3 -16 2 -19 10 -4 9 -13
16 -22 16 -8 0 -15 5 -15 10 0 6 -9 10 -19 10 -10 0 -21 7 -25 15 -3 8 -12 15
-21 15 -8 0 -15 4 -15 10 0 5 -7 7 -15 4 -8 -4 -15 -1 -15 5 0 6 -5 11 -11 11
-6 0 -27 12 -46 28 -20 15 -39 26 -42 26 -11 -2 -51 19 -51 28 0 4 -7 8 -15 8
-8 0 -15 4 -15 10 0 5 -6 7 -14 4 -7 -3 -16 2 -19 10 -4 9 -13 16 -22 16 -8 0
-15 4 -15 8 0 4 -16 14 -36 21 -19 7 -38 19 -40 26 -3 8 -12 11 -20 8 -8 -3
-14 -1 -14 5 0 9 -34 23 -45 19 -2 -1 -11 7 -19 18 -8 11 -18 20 -23 20 -18 1
-85 39 -90 51 -2 7 -11 10 -19 7 -8 -3 -14 -1 -14 5 0 9 -37 25 -52 23 -5 -1
-8 3 -8 8 0 11 -38 24 -67 23 -13 -1 -23 3 -23 8 0 6 -16 10 -35 10 -19 0 -35
-4 -35 -9z"/>
</g>
</svg>
