<?xml version="1.0" standalone="no"?>
<!DOCTYPE svg PUBLIC "-//W3C//DTD SVG 20010904//EN"
 "http://www.w3.org/TR/2001/REC-SVG-20010904/DTD/svg10.dtd">
<svg version="1.0" xmlns="http://www.w3.org/2000/svg"
 width="314.000000pt" height="314.000000pt" viewBox="0 0 314.000000 314.000000"
 preserveAspectRatio="xMidYMid meet">
<metadata>
Created by potrace 1.14, written by Peter Selinger 2001-2017
</metadata>
<g transform="translate(0.000000,314.000000) scale(0.100000,-0.100000)"
fill="#000000" stroke="none">
<path d="M1514 3059 c-71 -9 -84 -15 -315 -149 -94 -55 -175 -100 -179 -100
-4 0 -13 -7 -20 -15 -7 -9 -15 -13 -18 -10 -3 3 -12 -1 -20 -7 -19 -16 -53
-36 -74 -44 -10 -3 -18 -10 -18 -15 0 -5 -5 -9 -11 -9 -6 0 -68 -33 -137 -74
-70 -41 -149 -86 -177 -101 -27 -16 -67 -39 -87 -52 -21 -12 -40 -23 -43 -23
-22 0 -113 -92 -141 -142 l-29 -53 0 -670 0 -670 23 -45 c41 -81 81 -113 292
-235 113 -65 217 -125 232 -133 15 -7 30 -18 33 -23 4 -5 11 -7 16 -4 5 4 9 2
9 -2 0 -5 22 -20 50 -34 27 -13 50 -27 50 -31 0 -5 5 -8 11 -8 6 0 64 -31 128
-69 349 -206 363 -213 444 -219 85 -7 134 12 317 116 216 124 236 136 295 167
28 15 57 33 66 41 8 8 18 14 22 14 3 0 110 61 238 135 127 74 235 135 239 135
4 0 33 24 64 52 40 38 62 70 80 113 l24 60 -2 650 -2 650 -23 49 c-27 53 -97
130 -130 141 -12 3 -21 11 -21 16 0 5 -5 9 -10 9 -9 0 -233 126 -370 209 -19
11 -42 24 -50 28 -8 4 -43 24 -78 45 -34 21 -67 38 -72 38 -6 0 -10 5 -10 10
0 6 -5 10 -11 10 -9 0 -115 60 -309 174 -69 41 -130 68 -164 73 -17 2 -35 5
-41 7 -5 1 -38 -1 -71 -5z"/>
</g>
</svg>
